<svg id="Capa_1" enable-background="new 0 0 512 512" height="512" viewBox="0 0 512 512" width="512" xmlns="http://www.w3.org/2000/svg"><g><path d="m512 205.493v-195.147h-76.308l-85.197 85.197c-33.899-.631-67.992 11.393-94.495 36.075-26.508-24.701-60.613-36.733-94.523-36.102l-85.17-85.17h-76.307v195.147l29.148 29.148c1.026 33.152 14.155 65.996 39.403 91.245l175.768 175.768 42.427-42.426 14.143 14.142 42.426-42.426 14.143 14.143 42.426-42.427 14.143 14.142 63.64-63.639-30.809-30.809c23.01-24.737 35.001-56.075 35.978-87.694zm-63.882-165.147h33.882v152.721l-3.414 3.414c-5.823-22.543-17.543-43.865-35.165-61.486-16.252-16.252-35.653-27.48-56.255-33.697zm-418.118 0h33.882l60.925 60.925c-20.603 6.217-40.003 17.445-56.255 33.698-17.623 17.623-29.335 38.947-35.158 61.492l-3.394-3.394zm384.025 334.029-12.965-12.965-103.896-103.896-21.213 21.213 102.719 102.719-21.213 21.213-14.143-14.143-88.577-88.576-21.213 21.213 88.577 88.577-21.213 21.213-13.328-13.327-75.249-75.249-21.213 21.213 74.434 74.435-21.214 21.213-154.553-154.555c-40.938-40.939-40.938-107.553 0-148.493 20.473-20.472 47.355-30.704 74.247-30.704 25.355 0 50.724 9.109 70.695 27.313l-60.282 60.283 31.819 31.819c8.773 8.774 20.295 13.161 31.82 13.159 11.521-.001 23.048-4.387 31.819-13.159l28.543-28.542 136.813 136.812zm11.6-73.254-127.198-127.197-49.756 49.755c-2.833 2.833-6.601 4.394-10.607 4.394s-7.773-1.561-10.606-4.394l-10.606-10.606 56.865-56.866c40.94-40.939 107.555-40.938 148.493 0 39.766 39.768 40.905 103.76 3.415 144.914z"/></g></svg>